<svg width="64" height="64" xmlns="http://www.w3.org/2000/svg">
 <g id="Layer_1">
  <title>Layer 1</title>
  <ellipse fill-opacity="0.4" fill="#17181f" stroke="#000" cx="7" cy="7" id="svg_2" rx="3" ry="3" stroke-width="0"/>
  <ellipse fill-opacity="0.4" fill="#6c72cb" stroke="#000" cx="7" cy="17" id="svg_13" rx="3" ry="3" stroke-width="0"/>
  <ellipse fill-opacity="0.4" fill="#cb69c1" stroke="#000" cx="7" cy="27" id="svg_14" rx="3" ry="3" stroke-width="0"/>
  <ellipse fill-opacity="0.4" fill="#17181f" stroke="#000" cx="7" cy="37" id="svg_15" rx="3" ry="3" stroke-width="0"/>
  <ellipse fill-opacity="0.4" fill="#6c72cb" stroke="#000" cx="7" cy="47" id="svg_16" rx="3" ry="3" stroke-width="0"/>
  <ellipse fill-opacity="0.4" fill="#17181f" stroke="#000" cx="7" cy="57" id="svg_17" rx="3" ry="3" stroke-width="0"/>
  <ellipse fill-opacity="0.4" fill="#cb69c1" stroke="#000" cx="17" cy="7" id="svg_19" rx="3" ry="3" stroke-width="0"/>
  <ellipse fill-opacity="0.4" fill="#17181f" stroke="#000" cx="17" cy="17" id="svg_20" rx="3" ry="3" stroke-width="0"/>
  <ellipse fill-opacity="0.4" fill="#6c72cb" stroke="#000" cx="17" cy="27" id="svg_21" rx="3" ry="3" stroke-width="0"/>
  <ellipse fill-opacity="0.4" fill="#cb69c1" stroke="#000" cx="17" cy="37" id="svg_22" rx="3" ry="3" stroke-width="0"/>
  <ellipse fill-opacity="0.4" fill="#17181f" stroke="#000" cx="17" cy="47" id="svg_23" rx="3" ry="3" stroke-width="0"/>
  <ellipse fill-opacity="0.4" fill="#6c72cb" stroke="#000" cx="17" cy="57" id="svg_24" rx="3" ry="3" stroke-width="0"/>
  <ellipse fill-opacity="0.4" fill="#6c72cb" stroke="#000" cx="27" cy="7" id="svg_26" rx="3" ry="3" stroke-width="0"/>
  <ellipse fill-opacity="0.4" fill="#cb69c1" stroke="#000" cx="27" cy="17" id="svg_27" rx="3" ry="3" stroke-width="0"/>
  <ellipse fill-opacity="0.4" fill="#17181f" stroke="#000" cx="27" cy="27" id="svg_28" rx="3" ry="3" stroke-width="0"/>
  <ellipse fill-opacity="0.4" fill="#6c72cb" stroke="#000" cx="27" cy="37" id="svg_29" rx="3" ry="3" stroke-width="0"/>
  <ellipse fill-opacity="0.4" fill="#cb69c1" stroke="#000" cx="27" cy="47" id="svg_30" rx="3" ry="3" stroke-width="0"/>
  <ellipse fill-opacity="0.4" fill="#17181f" stroke="#000" cx="27" cy="57" id="svg_31" rx="3" ry="3" stroke-width="0"/>
  <ellipse fill-opacity="0.4" fill="#17181f" stroke="#000" cx="37" cy="7" id="svg_33" rx="3" ry="3" stroke-width="0"/>
  <ellipse fill-opacity="0.4" fill="#6c72cb" stroke="#000" cx="37" cy="17" id="svg_34" rx="3" ry="3" stroke-width="0"/>
  <ellipse fill-opacity="0.4" fill="#cb69c1" stroke="#000" cx="37" cy="27" id="svg_35" rx="3" ry="3" stroke-width="0"/>
  <ellipse fill-opacity="0.4" fill="#17181f" stroke="#000" cx="37" cy="37" id="svg_36" rx="3" ry="3" stroke-width="0"/>
  <ellipse fill-opacity="0.4" fill="#6c72cb" stroke="#000" cx="37" cy="47" id="svg_37" rx="3" ry="3" stroke-width="0"/>
  <ellipse fill-opacity="0.4" fill="#cb69c1" stroke="#000" cx="37" cy="57" id="svg_38" rx="3" ry="3" stroke-width="0"/>
  <ellipse fill-opacity="0.4" fill="#cb69c1" stroke="#000" cx="47" cy="7" id="svg_40" rx="3" ry="3" stroke-width="0"/>
  <ellipse fill-opacity="0.4" fill="#17181f" stroke="#000" cx="47" cy="17" id="svg_41" rx="3" ry="3" stroke-width="0"/>
  <ellipse fill-opacity="0.4" fill="#6c72cb" stroke="#000" cx="47" cy="27" id="svg_42" rx="3" ry="3" stroke-width="0"/>
  <ellipse fill-opacity="0.4" fill="#cb69c1" stroke="#000" cx="47" cy="37" id="svg_43" rx="3" ry="3" stroke-width="0"/>
  <ellipse fill-opacity="0.4" fill="#17181f" stroke="#000" cx="47" cy="47" id="svg_44" rx="3" ry="3" stroke-width="0"/>
  <ellipse fill-opacity="0.4" fill="#6c72cb" stroke="#000" cx="47" cy="57" id="svg_45" rx="3" ry="3" stroke-width="0"/>
  <ellipse fill-opacity="0.4" fill="#17181f" stroke="#000" cx="57" cy="7" id="svg_47" rx="3" ry="3" stroke-width="0"/>
  <ellipse fill-opacity="0.4" fill="#cb69c1" stroke="#000" cx="57" cy="17" id="svg_48" rx="3" ry="3" stroke-width="0"/>
  <ellipse fill-opacity="0.4" fill="#17181f" stroke="#000" cx="57" cy="27" id="svg_49" rx="3" ry="3" stroke-width="0"/>
  <ellipse fill-opacity="0.4" fill="#6c72cb" stroke="#000" cx="57" cy="37" id="svg_50" rx="3" ry="3" stroke-width="0"/>
  <ellipse fill-opacity="0.4" fill="#cb69c1" stroke="#000" cx="57" cy="47" id="svg_51" rx="3" ry="3" stroke-width="0"/>
  <ellipse fill-opacity="0.4" fill="#17181f" stroke="#000" cx="57" cy="57" id="svg_52" rx="3" ry="3" stroke-width="0"/>
 </g>

</svg>